HIERARCHY
ROOT Hips
{
	OFFSET -0.001795 -0.223333 0.028219
	CHANNELS 6 Xposition Yposition Zposition Zrotation Yrotation Xrotation 
	JOINT LeftUpLeg
	{
		OFFSET 0.069520 -0.091406 -0.006815
		CHANNELS 3 Zrotation Yrotation Xrotation
		JOINT LeftLeg
		{
			OFFSET 0.034277 -0.375199 -0.004496
			CHANNELS 3 Zrotation Yrotation Xrotation
			JOINT LeftFoot
			{
				OFFSET -0.013596 -0.397961 -0.043693
				CHANNELS 3 Zrotation Yrotation Xrotation
				JOINT LeftToe
				{
					OFFSET 0.026358 -0.055791 0.119288
					CHANNELS 3 Zrotation Yrotation Xrotation
					End Site
					{
						OFFSET 0.000000 0.000000 0.000000
					}
				}
			}
		}
	}
	JOINT RightUpLeg
	{
		OFFSET -0.067670 -0.090522 -0.004320
		CHANNELS 3 Zrotation Yrotation Xrotation
		JOINT RightLeg
		{
			OFFSET -0.038290 -0.382569 -0.008850
			CHANNELS 3 Zrotation Yrotation Xrotation
			JOINT RightFoot
			{
				OFFSET 0.015774 -0.398415 -0.042312
				CHANNELS 3 Zrotation Yrotation Xrotation
				JOINT RightToe
				{
					OFFSET -0.025372 -0.048144 0.123348
					CHANNELS 3 Zrotation Yrotation Xrotation
					End Site
					{
						OFFSET 0.000000 0.000000 0.000000
					}
				}
			}
		}
	}
	JOINT Spine
	{
		OFFSET -0.002533 0.108963 -0.026696
		CHANNELS 3 Zrotation Yrotation Xrotation
		JOINT Spine1
		{
			OFFSET 0.005487 0.135180 0.001092
			CHANNELS 3 Zrotation Yrotation Xrotation
			JOINT Spine2
			{
				OFFSET 0.001457 0.052922 0.025425
				CHANNELS 3 Zrotation Yrotation Xrotation
				JOINT Neck
				{
					OFFSET -0.002778 0.213870 -0.042857
					CHANNELS 3 Zrotation Yrotation Xrotation
					JOINT Head
					{
						OFFSET 0.005152 0.064970 0.051349
						CHANNELS 3 Zrotation Yrotation Xrotation
						End Site
						{
							OFFSET 0.000000 0.000000 0.000000
						}
					}
				}
				JOINT LeftShoulder
				{
					OFFSET 0.078845 0.121749 -0.034090
					CHANNELS 3 Zrotation Yrotation Xrotation
					JOINT LeftArm
					{
						OFFSET 0.090977 0.030469 -0.008868
						CHANNELS 3 Zrotation Yrotation Xrotation
						JOINT LeftForeArm
						{
							OFFSET 0.259612 -0.012772 -0.027456
							CHANNELS 3 Zrotation Yrotation Xrotation
							JOINT LeftHand
							{
								OFFSET 0.249234 0.008986 -0.001171
								CHANNELS 3 Zrotation Yrotation Xrotation
								End Site
								{
									OFFSET 0.000000 0.000000 0.000000
								}
							}
						}
					}
				}
				JOINT RightShoulder
				{
					OFFSET -0.081759 0.118833 -0.038615
					CHANNELS 3 Zrotation Yrotation Xrotation
					JOINT RightArm
					{
						OFFSET -0.096012 0.032551 -0.009143
						CHANNELS 3 Zrotation Yrotation Xrotation
						JOINT RightForeArm
						{
							OFFSET -0.253742 -0.013329 -0.021401
							CHANNELS 3 Zrotation Yrotation Xrotation
							JOINT RightHand
							{
								OFFSET -0.255298 0.007772 -0.005559
								CHANNELS 3 Zrotation Yrotation Xrotation
								End Site
								{
									OFFSET 0.000000 0.000000 0.000000
								}
							}
						}
					}
				}
			}
		}
	}
}
MOTION
Frames: 17
Frame Time: 0.050000
0.012872 0.946435 -0.026892 3.184692 1.057192 8.392941 4.292786 -0.566167 -7.736742 -3.056793 0.326899 -1.036695 -1.356620 2.753143 12.788825 0.000000 0.000000 0.000000 -3.873624 0.736908 -8.784200 -4.921799 0.597831 1.035857 -0.096992 -3.702332 8.174290 0.000000 0.000000 0.000000 1.331808 0.202298 -4.956293 0.633061 -0.181197 -3.143328 -14.307687 6.332775 1.618325 10.700604 -5.291634 -11.859896 0.000000 0.000000 0.000000 -6.821671 -2.971241 -0.370938 -40.000419 -17.381224 0.976803 -146.951219 -45.567072 108.713829 0.000000 0.000000 0.000000 12.156347 -5.546459 -2.368811 46.535746 4.029231 -2.754999 140.641421 49.778322 117.396290 0.000000 0.000000 0.000000 
0.013165 0.946592 -0.027979 3.242283 1.648250 8.347197 4.430252 -0.583180 -8.035277 -3.343586 0.348193 -0.702449 -1.648699 2.357641 12.804841 0.000000 0.000000 0.000000 -4.042921 0.714210 -8.615262 -4.668338 0.563795 0.922526 -0.327498 -4.163652 8.303265 0.000000 0.000000 0.000000 1.292531 0.179958 -4.563398 0.816323 -0.260331 -3.049047 -14.844119 6.810687 1.122351 11.295362 -5.760838 -11.296134 0.000000 0.000000 0.000000 -5.818184 -2.724516 -0.347177 -40.880251 -17.355557 0.950175 -148.586260 -44.912546 109.998432 0.000000 0.000000 0.000000 11.801043 -5.910065 -2.428145 46.642286 3.181794 -2.987161 140.951233 50.184192 119.115258 0.000000 0.000000 0.000000 
0.013673 0.946931 -0.028743 3.337784 2.342057 8.256609 4.281354 -0.597422 -8.110820 -3.222582 0.331443 -0.651282 -2.013073 1.881503 12.872004 0.000000 0.000000 0.000000 -4.125327 0.679430 -8.235248 -4.648947 0.540830 0.600889 -0.583087 -4.697378 8.542854 0.000000 0.000000 0.000000 1.438277 0.173854 -4.476858 0.735424 -0.223742 -2.969705 -15.379182 7.467641 1.213336 11.711608 -5.806907 -11.902385 0.000000 0.000000 0.000000 -5.456358 -2.756079 -0.343833 -41.818254 -17.783903 1.046454 -148.700637 -44.028266 108.068585 0.000000 0.000000 0.000000 11.272177 -6.148794 -2.396301 47.119172 2.901799 -3.071437 140.106247 51.150518 119.891157 0.000000 0.000000 0.000000 
0.014317 0.947076 -0.029143 3.458179 2.513771 8.205409 4.254735 -0.599719 -8.122566 -3.457010 0.352386 -0.615621 -2.125880 1.747958 12.941981 0.000000 0.000000 0.000000 -4.287854 0.654065 -7.952452 -4.645082 0.512200 0.228893 -0.629366 -4.816942 8.683602 0.000000 0.000000 0.000000 1.346003 0.184683 -4.714314 0.765545 -0.246207 -2.720569 -15.813452 8.195836 1.115774 12.502121 -6.375857 -11.588996 0.000000 0.000000 0.000000 -4.898357 -3.048417 -0.183827 -42.507848 -17.943619 1.058729 -147.720435 -43.916145 105.179172 0.000000 0.000000 0.000000 10.962678 -6.335992 -2.375415 47.366931 2.038466 -3.369037 138.455775 51.837655 118.817820 0.000000 0.000000 0.000000 
0.015098 0.947145 -0.029442 3.558961 2.113090 8.298809 4.049685 -0.597019 -7.995456 -3.444778 0.355670 -0.949261 -1.962047 2.002576 13.047953 0.000000 0.000000 0.000000 -4.355782 0.674398 -8.246420 -4.893143 0.549608 0.398260 -0.472953 -4.535408 8.673146 0.000000 0.000000 0.000000 1.420645 0.208063 -5.159069 0.702538 -0.231698 -2.455808 -16.372512 8.841196 0.886074 12.814129 -6.385755 -12.135854 0.000000 0.000000 0.000000 -4.638016 -3.207465 -0.106935 -43.170521 -18.146136 1.101144 -145.623977 -44.522152 101.692747 0.000000 0.000000 0.000000 10.852075 -6.321806 -2.306634 47.745847 1.792363 -3.431954 135.498130 53.641712 116.689566 0.000000 0.000000 0.000000 
0.016063 0.947464 -0.029823 3.579871 1.028807 7.916322 3.938916 -0.564206 -7.576007 -3.587706 0.377515 -0.737700 -1.455890 2.690040 13.066712 0.000000 0.000000 0.000000 -4.608845 0.672521 -8.222714 -4.767304 0.548232 0.630435 0.014337 -3.633789 8.624237 0.000000 0.000000 0.000000 1.482249 0.221409 -5.270132 0.534217 -0.165094 -2.403220 -16.676015 9.021162 0.680621 12.894086 -6.277924 -12.748511 0.000000 0.000000 0.000000 -4.687332 -3.514170 0.012077 -43.523426 -18.669799 1.296013 -141.562629 -45.961159 97.012675 0.000000 0.000000 0.000000 11.439990 -6.302717 -2.332687 47.174133 1.720195 -3.487562 131.446856 54.850312 111.711265 0.000000 0.000000 0.000000 
0.017236 0.947753 -0.030408 3.480023 -0.535997 7.553527 3.811853 -0.520413 -6.993832 -3.574825 0.389076 -0.765030 -0.707469 3.710426 13.105591 0.000000 0.000000 0.000000 -4.591771 0.696022 -8.368782 -4.977993 0.583423 0.895591 0.718278 -2.353147 8.617945 0.000000 0.000000 0.000000 1.546991 0.241828 -5.456875 0.682714 -0.258503 -1.824721 -17.062717 8.632629 0.015083 12.826041 -6.266707 -12.820371 0.000000 0.000000 0.000000 -4.536216 -4.217836 0.358579 -43.693270 -19.742595 1.728157 -137.904913 -48.033291 94.890544 0.000000 0.000000 0.000000 11.756251 -5.571227 -2.113535 47.166467 1.796596 -3.427728 127.968183 56.209978 107.386332 0.000000 0.000000 0.000000 
0.018866 0.948112 -0.031068 3.335155 -3.013794 7.164493 3.537855 -0.476548 -6.433138 -3.428978 0.392242 -0.509506 0.512302 5.381174 13.178468 0.000000 0.000000 0.000000 -4.565566 0.761688 -9.038911 -5.269489 0.676019 1.767600 1.793028 -0.374422 8.552470 0.000000 0.000000 0.000000 1.616965 0.257158 -5.437816 0.623598 -0.243323 -1.745764 -16.820027 7.713418 -0.521717 12.909692 -6.309455 -13.354938 0.000000 0.000000 0.000000 -5.136054 -5.160796 0.730886 -43.100164 -21.279582 2.384772 -132.237935 -50.843897 92.106717 0.000000 0.000000 0.000000 12.008840 -4.834718 -2.041484 46.456135 2.115622 -3.283745 124.096902 56.781573 101.209548 0.000000 0.000000 0.000000 
0.020872 0.948288 -0.031636 3.034974 -6.240747 6.792631 3.310646 -0.411573 -5.585634 -3.263238 0.397473 -0.593389 2.106114 7.584158 13.385413 0.000000 0.000000 0.000000 -4.438840 0.829150 -9.519433 -5.521700 0.704226 1.982892 3.259647 2.231147 8.720589 0.000000 0.000000 0.000000 1.692605 0.276101 -5.427381 0.771958 -0.320535 -1.779374 -16.149123 6.096768 -0.736607 12.756598 -6.409668 -13.485089 0.000000 0.000000 0.000000 -5.973514 -6.374566 1.331909 -42.258787 -23.253123 3.162757 -126.489938 -53.947330 90.949878 0.000000 0.000000 0.000000 11.539534 -4.403206 -2.264322 46.159872 1.841615 -3.317357 122.174333 56.535672 95.974012 0.000000 0.000000 0.000000 
0.023110 0.948072 -0.031696 2.676701 -9.976909 6.252177 3.171952 -0.320470 -4.433720 -3.310808 0.431226 -0.691422 3.959060 10.148546 13.677702 0.000000 0.000000 0.000000 -4.215601 0.911412 -10.109277 -5.824575 0.776967 2.614925 4.924031 5.237526 8.838003 0.000000 0.000000 0.000000 1.708985 0.304391 -5.502554 1.050527 -0.460653 -1.395439 -15.479659 3.966631 -1.232066 12.303058 -6.240990 -14.076058 0.000000 0.000000 0.000000 -6.757939 -7.430399 2.047448 -41.074584 -25.295068 3.895982 -119.149217 -56.694133 87.999397 0.000000 0.000000 0.000000 11.094116 -4.285680 -2.693531 45.450542 0.956284 -3.523916 119.332004 56.343560 89.319606 0.000000 0.000000 0.000000 
0.025483 0.947393 -0.031437 2.212004 -13.599461 5.629502 3.021065 -0.198954 -2.829608 -3.197841 0.444239 -1.344464 5.759032 12.659714 14.019481 0.000000 0.000000 0.000000 -3.586938 0.962640 -10.240289 -6.571197 0.857057 2.749815 6.587935 8.193528 9.082315 0.000000 0.000000 0.000000 1.885021 0.313680 -5.279891 1.756871 -0.782655 -1.434061 -15.074132 1.649739 -1.650935 12.199369 -6.538571 -13.584547 0.000000 0.000000 0.000000 -6.744232 -8.642474 2.964147 -41.241919 -27.942196 4.964688 -110.255524 -59.310245 83.479992 0.000000 0.000000 0.000000 9.931268 -4.890722 -3.290221 45.568454 -0.517149 -3.995096 117.062468 55.443527 82.532428 0.000000 0.000000 0.000000 
0.027862 0.946956 -0.030908 1.800499 -17.920932 5.075537 2.754714 -0.107357 -1.793502 -3.205531 0.476783 -0.971408 7.968364 15.752884 14.715243 0.000000 0.000000 0.000000 -3.261372 1.044131 -10.754923 -6.840533 0.913136 3.226641 8.614774 11.636685 9.633402 0.000000 0.000000 0.000000 2.229679 0.342833 -5.241523 1.682422 -0.748688 -1.171199 -13.838652 -1.720747 -1.998853 11.508682 -6.532099 -13.036043 0.000000 0.000000 0.000000 -7.850404 -9.946340 4.251509 -40.403477 -29.942825 5.610087 -99.676239 -62.158033 78.652770 0.000000 0.000000 0.000000 7.716592 -4.965052 -3.430955 46.539907 -2.301903 -4.785352 114.894147 56.373193 77.117766 0.000000 0.000000 0.000000 
0.030140 0.946298 -0.030650 1.391310 -21.635038 4.963653 2.643555 -0.016403 -0.825054 -3.413554 0.535149 -1.480576 9.862203 18.366809 15.575365 0.000000 0.000000 0.000000 -2.578300 1.127676 -11.248431 -7.657682 0.967314 3.073810 10.462332 14.540615 10.398808 0.000000 0.000000 0.000000 2.386240 0.392443 -5.507774 2.592660 -1.139597 -1.361125 -13.541340 -4.385320 -2.317505 11.722168 -7.043603 -11.775360 0.000000 0.000000 0.000000 -8.875257 -11.178991 5.578995 -40.518175 -31.803512 6.317640 -89.626256 -64.270875 73.006376 0.000000 0.000000 0.000000 5.926871 -6.553406 -3.869880 47.074169 -3.964579 -5.662785 113.014885 55.309472 70.588510 0.000000 0.000000 0.000000 
0.032187 0.946039 -0.030597 1.086971 -25.859602 4.606580 2.413388 0.061172 -0.134569 -3.756503 0.631705 -1.035955 12.090349 21.330819 16.884467 0.000000 0.000000 0.000000 -2.154306 1.210707 -11.737448 -8.075942 0.997380 3.160592 12.680155 17.760793 11.562645 0.000000 0.000000 0.000000 2.623802 0.414971 -5.396902 2.850852 -1.232101 -1.359583 -12.677979 -6.697490 -2.209726 11.535894 -7.220544 -10.854880 0.000000 0.000000 0.000000 -10.475165 -12.072722 7.118617 -38.552693 -33.423709 6.275382 -83.110218 -66.486904 70.857930 0.000000 0.000000 0.000000 4.468349 -6.997375 -3.800526 47.493719 -4.591789 -6.271850 112.002023 56.994663 68.645741 0.000000 0.000000 0.000000 
0.033981 0.945921 -0.030864 0.722098 -28.858778 4.341928 2.425739 0.140784 0.513445 -4.117047 0.728792 -0.903772 13.686682 23.385295 17.953688 0.000000 0.000000 0.000000 -1.759033 1.243852 -11.873134 -8.235967 0.969453 2.983003 14.419231 19.972670 12.711916 0.000000 0.000000 0.000000 2.586420 0.420345 -5.293283 3.419788 -1.454498 -1.468461 -12.052096 -8.673479 -1.876151 11.335888 -7.225187 -10.763992 0.000000 0.000000 0.000000 -10.729317 -12.794793 8.268378 -37.275075 -35.286014 6.542087 -81.925110 -68.935977 73.524507 0.000000 0.000000 0.000000 2.916876 -7.986874 -3.686094 47.510084 -5.151302 -6.900916 111.571178 56.922314 65.896918 0.000000 0.000000 0.000000 
0.035557 0.946467 -0.031071 0.418439 -32.595764 4.139209 2.187151 0.238572 1.349430 -4.376821 0.817699 -1.154430 15.721972 25.754318 19.851193 0.000000 0.000000 0.000000 -1.649721 1.298127 -12.171052 -7.900685 0.861959 2.720928 16.779304 22.491266 14.589552 0.000000 0.000000 0.000000 2.925494 0.449456 -5.249198 3.508121 -1.449371 -1.322775 -11.387925 -9.644606 -1.912302 10.853004 -7.067396 -10.041796 0.000000 0.000000 0.000000 -11.534044 -13.477302 9.478253 -34.356205 -35.597525 5.741281 -85.207412 -71.181687 79.787367 0.000000 0.000000 0.000000 2.198373 -8.377738 -3.615006 46.440771 -5.123662 -6.908162 112.505737 58.596950 67.281487 0.000000 0.000000 0.000000 
0.036998 0.946837 -0.031237 0.052686 -34.711942 4.232657 2.083030 0.307849 1.920250 -4.358825 0.828149 -1.704494 16.917644 27.075881 21.014839 0.000000 0.000000 0.000000 -1.255841 1.352537 -12.487807 -8.012804 0.844467 2.630728 18.212009 23.811905 15.850263 0.000000 0.000000 0.000000 3.253230 0.479519 -5.303395 3.856823 -1.557663 -1.227134 -11.059392 -10.695997 -1.947553 10.430158 -6.879476 -9.450469 0.000000 0.000000 0.000000 -11.936569 -13.320281 9.990661 -32.195991 -35.772249 5.155077 -90.998291 -71.894866 86.983073 0.000000 0.000000 0.000000 1.266646 -9.142559 -3.490254 45.544069 -5.395511 -7.093461 114.729634 58.445944 68.200308 0.000000 0.000000 0.000000 
